{
  "accessors": {
    "accessor_index_0": {
      "bufferView": "bufferView_1",
      "byteOffset": 0,
      "byteStride": 0,
      "componentType": 5123,
      "count": 576,
      "type": "SCALAR",
      "min": [
        0
      ],
      "max": [
        199
      ]
    },
    "accessor_index_1": {
      "bufferView": "bufferView_1",
      "byteOffset": 1152,
      "byteStride": 0,
      "componentType": 5123,
      "count": 240,
      "type": "SCALAR",
      "min": [
        200
      ],
      "max": [
        439
      ]
    },
    "accessor_position": {
      "bufferView": "bufferView_0",
      "byteOffset": 0,
      "byteStride": 0,
      "componentType": 5126,
      "count": 440,
      "min": [
        -4.122896194458008,
        -3.8041000366210938,
        -4.508338928222656
      ],
      "max": [
        4.081621170043945,
        10.684638977050781,
        3.6572139263153076
      ],
      "type": "VEC3"
    },
    "accessor_normal": {
      "bufferView": "bufferView_0",
      "byteOffset": 5280,
      "byteStride": 0,
      "componentType": 5126,
      "count": 440,
      "type": "VEC3",
      "min": [
        -1,
        -0.977312445640564,
        -1
      ],
      "max": [
        1,
        0.977312445640564,
        1
      ]
    },
    "accessor_uv": {
      "bufferView": "bufferView_0",
      "byteOffset": 10560,
      "byteStride": 0,
      "componentType": 5126,
      "count": 440,
      "type": "VEC2",
      "min": [
        0,
        0
      ],
      "max": [
        1.088104009628296,
        1
      ]
    }
  },
  "asset": {
    "generator": "OBJ2GLTF",
    "premultipliedAlpha": true,
    "profile": {
      "api": "WebGL",
      "version": "1.0"
    },
    "version": "1.0"
  },
  "buffers": {
    "buffer_0": {
      "type": "arraybuffer",
      "byteLength": 15712,
      "uri": "buffer_0.bin"
    }
  },
  "bufferViews": {
    "bufferView_0": {
      "buffer": "buffer_0",
      "byteLength": 14080,
      "byteOffset": 0,
      "target": 34962
    },
    "bufferView_1": {
      "buffer": "buffer_0",
      "byteLength": 1632,
      "byteOffset": 14080,
      "target": 34963
    }
  },
  "images": {
    "bark": {
      "uri": "bark.jpeg"
    },
    "forest.512x512": {
      "uri": "forest.512x512.jpeg"
    }
  },
  "materials": {
    "material_barkMaterial": {
      "name": "barkMaterial",
      "extensions": {},
      "values": {
        "ambient": [
          0,
          0,
          0,
          1
        ],
        "diffuse": "texture_bark",
        "emission": [
          0,
          0,
          0,
          1
        ],
        "specular": [
          0.001176,
          0.001176,
          0.001176,
          1
        ],
        "shininess": 96.078431,
        "transparency": 1
      },
      "technique": "technique0"
    },
    "material_forest_512x512_jpgMaterial": {
      "name": "forest_512x512_jpgMaterial",
      "extensions": {},
      "values": {
        "ambient": [
          0,
          0,
          0,
          1
        ],
        "diffuse": "texture_forest.512x512",
        "emission": [
          0,
          0,
          0,
          1
        ],
        "specular": [
          0.001176,
          0.001176,
          0.001176,
          1
        ],
        "shininess": 96.078431,
        "transparency": 1
      },
      "technique": "technique0"
    }
  },
  "meshes": {
    "mesh_tc": {
      "name": "tc",
      "primitives": [
        {
          "attributes": {
            "POSITION": "accessor_position",
            "NORMAL": "accessor_normal",
            "TEXCOORD_0": "accessor_uv"
          },
          "indices": "accessor_index_0",
          "material": "material_barkMaterial",
          "mode": 4
        },
        {
          "attributes": {
            "POSITION": "accessor_position",
            "NORMAL": "accessor_normal",
            "TEXCOORD_0": "accessor_uv"
          },
          "indices": "accessor_index_1",
          "material": "material_forest_512x512_jpgMaterial",
          "mode": 4
        }
      ]
    }
  },
  "nodes": {
    "rootNode": {
      "children": [],
      "meshes": [
        "mesh_tc"
      ],
      "matrix": [
        1,
        0,
        0,
        0,
        0,
        1,
        0,
        0,
        0,
        0,
        1,
        0,
        0,
        0,
        0,
        1
      ]
    }
  },
  "samplers": {
    "sampler_0": {
      "magFilter": 9729,
      "minFilter": 9986,
      "wrapS": 10497,
      "wrapT": 10497
    }
  },
  "scene": "scene_tc",
  "scenes": {
    "scene_tc": {
      "nodes": [
        "rootNode"
      ]
    }
  },
  "textures": {
    "texture_bark": {
      "format": 6407,
      "internalFormat": 6407,
      "sampler": "sampler_0",
      "source": "bark",
      "target": 3553,
      "type": 5121
    },
    "texture_forest.512x512": {
      "format": 6407,
      "internalFormat": 6407,
      "sampler": "sampler_0",
      "source": "forest.512x512",
      "target": 3553,
      "type": 5121
    }
  },
  "extensionsUsed": [],
  "animations": {},
  "cameras": {},
  "techniques": {
    "technique0": {
      "attributes": {
        "a_position": "position",
        "a_normal": "normal",
        "a_texcoord_0": "texcoord_0"
      },
      "parameters": {
        "modelViewMatrix": {
          "semantic": "MODELVIEW",
          "type": 35676
        },
        "projectionMatrix": {
          "semantic": "PROJECTION",
          "type": 35676
        },
        "normalMatrix": {
          "semantic": "MODELVIEWINVERSETRANSPOSE",
          "type": 35675
        },
        "ambient": {
          "type": 35666
        },
        "diffuse": {
          "type": 35678
        },
        "emission": {
          "type": 35666
        },
        "specular": {
          "type": 35666
        },
        "shininess": {
          "type": 5126
        },
        "transparency": {
          "type": 5126
        },
        "position": {
          "semantic": "POSITION",
          "type": 35665
        },
        "normal": {
          "semantic": "NORMAL",
          "type": 35665
        },
        "texcoord_0": {
          "semantic": "TEXCOORD_0",
          "type": 35664
        }
      },
      "program": "program0",
      "states": {
        "enable": [
          2884,
          2929
        ]
      },
      "uniforms": {
        "u_modelViewMatrix": "modelViewMatrix",
        "u_projectionMatrix": "projectionMatrix",
        "u_normalMatrix": "normalMatrix",
        "u_ambient": "ambient",
        "u_diffuse": "diffuse",
        "u_emission": "emission",
        "u_specular": "specular",
        "u_shininess": "shininess",
        "u_transparency": "transparency"
      }
    }
  },
  "programs": {
    "program0": {
      "attributes": [
        "a_position",
        "a_normal",
        "a_texcoord_0"
      ],
      "fragmentShader": "fragmentShader0",
      "vertexShader": "vertexShader0"
    }
  },
  "shaders": {
    "vertexShader0": {
      "type": 35633,
      "uri": "vertexShader0.glsl"
    },
    "fragmentShader0": {
      "type": 35632,
      "uri": "fragmentShader0.glsl"
    }
  },
  "skins": {},
  "extensions": {}
}
